<?xml version="1.0" encoding="iso-8859-1"?>
<!-- Generator: Adobe Illustrator 16.0.4, SVG Export Plug-In . SVG Version: 6.00 Build 0)  -->
<!DOCTYPE svg PUBLIC "-//W3C//DTD SVG 1.1//EN" "http://www.w3.org/Graphics/SVG/1.1/DTD/svg11.dtd">
<svg version="1.1" id="Capa_1" xmlns="http://www.w3.org/2000/svg" xmlns:xlink="http://www.w3.org/1999/xlink" x="0px" y="0px"
	 width="44px" height="45.999px" viewBox="0 0 44 45.999" style="enable-background:new 0 0 44 45.999;" xml:space="preserve">
<g id="_x33_44._Playlist">
	<g>
		<path d="M2,19.999h12V16H2c-1.104,0-2,0.895-2,1.999S0.896,19.999,2,19.999z M2,12h12v-0.001L31.141,8H2C0.896,8,0,8.895,0,9.999
			V10C0,11.104,0.896,12,2,12z M2,4h30c1.104,0,2-0.896,2-2c0-1.105-0.896-2-2-2H2C0.896,0,0,0.895,0,2C0,3.104,0.896,4,2,4z M2,28
			h12v-4.001H2c-1.104,0-2,0.896-2,2V26C0,27.104,0.896,28,2,28z M34.077,12.784l-12.155,2.431C19.756,15.648,18,17.79,18,19.999
			V32.1c-0.323-0.065-0.657-0.101-1-0.101c-2.762,0-5,2.239-5,5c0,2.762,2.238,5,5,5c2.761,0,5-2.238,5-5
			c0-0.255-0.038-0.499-0.075-0.743L22,36.241V22.285l12-2.286V28.1c-0.323-0.065-0.657-0.101-1-0.101c-2.762,0-5,2.239-5,5
			c0,2.762,2.238,5,5,5c2.687,0,4.863-2.125,4.979-4.785L38,33.21V16C38,13.79,36.243,12.351,34.077,12.784z M0,33.999
			c0,1.104,0.896,2,2,2h6.059c0.163-1.469,0.676-2.831,1.459-4H2C0.896,31.999,0,32.895,0,33.999z"/>
	</g>
</g>
<g>
</g>
<g>
</g>
<g>
</g>
<g>
</g>
<g>
</g>
<g>
</g>
<g>
</g>
<g>
</g>
<g>
</g>
<g>
</g>
<g>
</g>
<g>
</g>
<g>
</g>
<g>
</g>
<g>
</g>
</svg>
